<svg width="33" height="33" viewBox="0 0 33 33" fill="none" xmlns="http://www.w3.org/2000/svg">
<g clip-path="url(#clip0_55_7308)">
<path d="M16.5 3.5802C18.8882 3.5802 21.1357 4.46558 22.834 6.07043C24.2052 7.36416 25.1726 9.05164 25.6738 11.0294L25.7686 11.4288C25.8295 11.7106 25.9675 11.9706 26.168 12.1779C26.3438 12.3595 26.5614 12.4939 26.8018 12.5685L26.9053 12.5968C27.9776 12.8471 28.9861 13.3106 29.7998 13.9327C31.2465 15.038 31.9999 16.5467 32 18.3165C32 20.0482 31.3778 21.494 30.207 22.545L29.9648 22.7501C28.7859 23.6952 27.1172 24.2365 25.25 24.2365H18V16.0841L19.4355 17.5646C19.5745 17.7077 19.7402 17.8224 19.9238 17.9005C20.1075 17.9786 20.3053 18.0182 20.5049 18.0177C20.7046 18.0172 20.9026 17.9758 21.0859 17.8966C21.269 17.8175 21.4341 17.7025 21.5723 17.5587C22.1619 16.9448 22.1135 15.9732 21.5469 15.3878H21.5459L17.5654 11.2843C17.2854 10.9958 16.9026 10.8302 16.5 10.8302C16.1477 10.8302 15.8103 10.9569 15.5439 11.1818L15.4346 11.2843L11.4531 15.3888C10.9034 15.9559 10.8387 16.8899 11.3838 17.5089V17.5099C11.5194 17.6639 11.6855 17.7895 11.8711 17.8771C12.0565 17.9645 12.2579 18.0126 12.4629 18.0177C12.668 18.0228 12.8719 17.9846 13.0615 17.9064C13.2511 17.8282 13.4227 17.7117 13.5654 17.5646L15 16.0851V24.2365H9C6.84531 24.2365 4.85278 23.5042 3.38184 22.1945H3.38086C1.84518 20.8234 1.00011 18.9308 1 16.8478C1 14.7844 1.78431 12.9919 3.26855 11.6388C4.28042 10.7192 5.59689 10.0438 7.07129 9.68958L7.36816 9.62317C7.59973 9.57495 7.81616 9.47203 8 9.32336C8.18363 9.17485 8.32863 8.98443 8.42676 8.76965L8.42773 8.77063C8.93649 7.66624 9.65263 6.6804 10.5322 5.86926L10.9189 5.53235C12.4741 4.25707 14.4016 3.5802 16.5 3.5802Z" fill="#25A249" stroke="#25A249"/>
<path d="M17 25.2365V28.8888C16.9999 29.0344 16.944 29.1712 16.8486 29.2697C16.7536 29.3677 16.6276 29.42 16.5 29.42C16.3724 29.42 16.2464 29.3677 16.1514 29.2697C16.056 29.1712 16.0001 29.0344 16 28.8888V25.2365H17Z" fill="#25A249" stroke="#25A249"/>
</g>
<defs>
<clipPath id="clip0_55_7308">
<rect width="32" height="33" fill="white" transform="translate(0.5)"/>
</clipPath>
</defs>
</svg>
